<mxfile host="app.diagrams.net" agent="Mozilla/5.0 (Windows NT 10.0; Win64; x64) AppleWebKit/537.36 (KHTML, like Gecko) Chrome/138.0.0.0 Safari/537.36 Edg/138.0.0.0" version="27.2.0">
  <diagram name="Page-1" id="qz-7e21R8A6uBmov8YC7">
    <mxGraphModel dx="2453" dy="2183" grid="1" gridSize="10" guides="1" tooltips="1" connect="1" arrows="1" fold="1" page="1" pageScale="1" pageWidth="850" pageHeight="1100" math="0" shadow="0">
      <root>
        <mxCell id="0" />
        <mxCell id="1" parent="0" />
        <mxCell id="6CZiNWrHYL1ybJMgH_nj-2" value="" style="ellipse;whiteSpace=wrap;html=1;strokeColor=none;" parent="1" vertex="1">
          <mxGeometry x="-160" y="-260" width="96" height="50" as="geometry" />
        </mxCell>
        <mxCell id="6CZiNWrHYL1ybJMgH_nj-18" value="employee" style="rounded=1;arcSize=10;whiteSpace=wrap;html=1;align=center;strokeColor=default;verticalAlign=middle;fontFamily=Helvetica;fontSize=12;fontColor=default;fillColor=default;" parent="1" vertex="1">
          <mxGeometry x="-220" y="-630" width="100" height="40" as="geometry" />
        </mxCell>
        <mxCell id="6CZiNWrHYL1ybJMgH_nj-20" style="rounded=0;orthogonalLoop=1;jettySize=auto;html=1;exitX=0.5;exitY=1;exitDx=0;exitDy=0;entryX=0.25;entryY=0;entryDx=0;entryDy=0;fontFamily=Helvetica;fontSize=12;fontColor=default;endArrow=none;endFill=0;" parent="1" source="6CZiNWrHYL1ybJMgH_nj-19" target="6CZiNWrHYL1ybJMgH_nj-18" edge="1">
          <mxGeometry relative="1" as="geometry" />
        </mxCell>
        <mxCell id="6CZiNWrHYL1ybJMgH_nj-19" value="ssn" style="ellipse;whiteSpace=wrap;html=1;align=center;strokeColor=default;verticalAlign=middle;fontFamily=Helvetica;fontSize=12;fontColor=default;fillColor=default;fontStyle=4" parent="1" vertex="1">
          <mxGeometry x="-240" y="-730" width="100" height="60" as="geometry" />
        </mxCell>
        <mxCell id="6CZiNWrHYL1ybJMgH_nj-28" style="rounded=0;orthogonalLoop=1;jettySize=auto;html=1;exitX=0;exitY=0.5;exitDx=0;exitDy=0;fontFamily=Helvetica;fontSize=12;fontColor=default;edgeStyle=orthogonalEdgeStyle;endArrow=none;endFill=0;" parent="1" edge="1">
          <mxGeometry relative="1" as="geometry">
            <mxPoint x="-130" y="-640" as="targetPoint" />
            <mxPoint x="-64" y="-710" as="sourcePoint" />
          </mxGeometry>
        </mxCell>
        <mxCell id="6CZiNWrHYL1ybJMgH_nj-21" value="gender" style="ellipse;whiteSpace=wrap;html=1;align=center;strokeColor=default;verticalAlign=middle;fontFamily=Helvetica;fontSize=12;fontColor=default;fillColor=default;" parent="1" vertex="1">
          <mxGeometry x="-90" y="-730" width="100" height="40" as="geometry" />
        </mxCell>
        <mxCell id="6CZiNWrHYL1ybJMgH_nj-30" style="edgeStyle=orthogonalEdgeStyle;rounded=0;orthogonalLoop=1;jettySize=auto;html=1;fontFamily=Helvetica;fontSize=12;fontColor=default;endArrow=none;endFill=0;entryX=1;entryY=1;entryDx=0;entryDy=0;exitX=0;exitY=0;exitDx=0;exitDy=0;" parent="1" source="6CZiNWrHYL1ybJMgH_nj-23" edge="1">
          <mxGeometry relative="1" as="geometry">
            <mxPoint x="-60" y="-660" as="sourcePoint" />
            <mxPoint x="-120" y="-630" as="targetPoint" />
            <Array as="points">
              <mxPoint x="-49" y="-670" />
              <mxPoint x="-92" y="-670" />
              <mxPoint x="-92" y="-610" />
              <mxPoint x="-120" y="-610" />
            </Array>
          </mxGeometry>
        </mxCell>
        <mxCell id="6CZiNWrHYL1ybJMgH_nj-23" value="Birthdate" style="ellipse;whiteSpace=wrap;html=1;align=center;strokeColor=default;verticalAlign=middle;fontFamily=Helvetica;fontSize=12;fontColor=default;fillColor=default;" parent="1" vertex="1">
          <mxGeometry x="-64" y="-650" width="100" height="40" as="geometry" />
        </mxCell>
        <mxCell id="6CZiNWrHYL1ybJMgH_nj-32" style="edgeStyle=orthogonalEdgeStyle;rounded=0;orthogonalLoop=1;jettySize=auto;html=1;fontFamily=Helvetica;fontSize=12;fontColor=default;endArrow=none;endFill=0;" parent="1" source="6CZiNWrHYL1ybJMgH_nj-25" target="6CZiNWrHYL1ybJMgH_nj-18" edge="1">
          <mxGeometry relative="1" as="geometry" />
        </mxCell>
        <mxCell id="6CZiNWrHYL1ybJMgH_nj-25" value="name" style="ellipse;whiteSpace=wrap;html=1;align=center;strokeColor=default;verticalAlign=middle;fontFamily=Helvetica;fontSize=12;fontColor=default;fillColor=default;" parent="1" vertex="1">
          <mxGeometry x="-30" y="-580" width="100" height="40" as="geometry" />
        </mxCell>
        <mxCell id="6CZiNWrHYL1ybJMgH_nj-36" style="edgeStyle=orthogonalEdgeStyle;rounded=0;orthogonalLoop=1;jettySize=auto;html=1;entryX=1;entryY=0.5;entryDx=0;entryDy=0;fontFamily=Helvetica;fontSize=12;fontColor=default;endArrow=none;endFill=0;" parent="1" source="6CZiNWrHYL1ybJMgH_nj-33" target="6CZiNWrHYL1ybJMgH_nj-25" edge="1">
          <mxGeometry relative="1" as="geometry" />
        </mxCell>
        <mxCell id="6CZiNWrHYL1ybJMgH_nj-33" value="Fname" style="ellipse;whiteSpace=wrap;html=1;align=center;strokeColor=default;verticalAlign=middle;fontFamily=Helvetica;fontSize=12;fontColor=default;fillColor=default;" parent="1" vertex="1">
          <mxGeometry x="90" y="-580" width="100" height="40" as="geometry" />
        </mxCell>
        <mxCell id="6CZiNWrHYL1ybJMgH_nj-35" style="edgeStyle=orthogonalEdgeStyle;rounded=0;orthogonalLoop=1;jettySize=auto;html=1;entryX=1;entryY=1;entryDx=0;entryDy=0;fontFamily=Helvetica;fontSize=12;fontColor=default;endArrow=none;endFill=0;" parent="1" source="6CZiNWrHYL1ybJMgH_nj-34" target="6CZiNWrHYL1ybJMgH_nj-25" edge="1">
          <mxGeometry relative="1" as="geometry" />
        </mxCell>
        <mxCell id="6CZiNWrHYL1ybJMgH_nj-34" value="Lname" style="ellipse;whiteSpace=wrap;html=1;align=center;strokeColor=default;verticalAlign=middle;fontFamily=Helvetica;fontSize=12;fontColor=default;fillColor=default;" parent="1" vertex="1">
          <mxGeometry x="140" y="-530" width="100" height="40" as="geometry" />
        </mxCell>
        <mxCell id="6CZiNWrHYL1ybJMgH_nj-48" style="rounded=0;orthogonalLoop=1;jettySize=auto;html=1;exitX=1;exitY=0.25;exitDx=0;exitDy=0;entryX=0.5;entryY=1;entryDx=0;entryDy=0;fontFamily=Helvetica;fontSize=12;fontColor=default;endArrow=none;endFill=0;" parent="1" source="6CZiNWrHYL1ybJMgH_nj-38" target="6CZiNWrHYL1ybJMgH_nj-41" edge="1">
          <mxGeometry relative="1" as="geometry" />
        </mxCell>
        <mxCell id="6CZiNWrHYL1ybJMgH_nj-38" value="department" style="rounded=1;arcSize=10;whiteSpace=wrap;html=1;align=center;strokeColor=default;verticalAlign=middle;fontFamily=Helvetica;fontSize=12;fontColor=default;fillColor=default;" parent="1" vertex="1">
          <mxGeometry x="520" y="-660" width="100" height="40" as="geometry" />
        </mxCell>
        <mxCell id="6CZiNWrHYL1ybJMgH_nj-41" value="Location" style="ellipse;whiteSpace=wrap;html=1;align=center;strokeColor=default;verticalAlign=middle;fontFamily=Helvetica;fontSize=12;fontColor=default;fillColor=default;" parent="1" vertex="1">
          <mxGeometry x="650" y="-730" width="100" height="50" as="geometry" />
        </mxCell>
        <mxCell id="6CZiNWrHYL1ybJMgH_nj-47" style="edgeStyle=orthogonalEdgeStyle;rounded=0;orthogonalLoop=1;jettySize=auto;html=1;exitX=0.5;exitY=1;exitDx=0;exitDy=0;entryX=0.5;entryY=0;entryDx=0;entryDy=0;fontFamily=Helvetica;fontSize=12;fontColor=default;endArrow=none;endFill=0;" parent="1" source="6CZiNWrHYL1ybJMgH_nj-42" target="6CZiNWrHYL1ybJMgH_nj-38" edge="1">
          <mxGeometry relative="1" as="geometry" />
        </mxCell>
        <mxCell id="6CZiNWrHYL1ybJMgH_nj-42" value="DName" style="ellipse;whiteSpace=wrap;html=1;align=center;strokeColor=default;verticalAlign=middle;fontFamily=Helvetica;fontSize=12;fontColor=default;fillColor=default;" parent="1" vertex="1">
          <mxGeometry x="530" y="-730" width="100" height="40" as="geometry" />
        </mxCell>
        <mxCell id="6CZiNWrHYL1ybJMgH_nj-43" value="PNum" style="ellipse;whiteSpace=wrap;html=1;align=center;strokeColor=default;verticalAlign=middle;fontFamily=Helvetica;fontSize=12;fontColor=default;fillColor=default;fontStyle=4" parent="1" vertex="1">
          <mxGeometry x="670" y="-440" width="100" height="50" as="geometry" />
        </mxCell>
        <mxCell id="6CZiNWrHYL1ybJMgH_nj-51" style="edgeStyle=orthogonalEdgeStyle;rounded=0;orthogonalLoop=1;jettySize=auto;html=1;exitX=1;exitY=0.5;exitDx=0;exitDy=0;entryX=0;entryY=0.5;entryDx=0;entryDy=0;fontFamily=Helvetica;fontSize=12;fontColor=default;endArrow=none;endFill=0;" parent="1" source="6CZiNWrHYL1ybJMgH_nj-44" target="6CZiNWrHYL1ybJMgH_nj-49" edge="1">
          <mxGeometry relative="1" as="geometry" />
        </mxCell>
        <mxCell id="6CZiNWrHYL1ybJMgH_nj-44" value="PName" style="ellipse;whiteSpace=wrap;html=1;align=center;strokeColor=default;verticalAlign=middle;fontFamily=Helvetica;fontSize=12;fontColor=default;fillColor=default;" parent="1" vertex="1">
          <mxGeometry x="400" y="-390" width="100" height="40" as="geometry" />
        </mxCell>
        <mxCell id="6CZiNWrHYL1ybJMgH_nj-46" style="edgeStyle=orthogonalEdgeStyle;rounded=0;orthogonalLoop=1;jettySize=auto;html=1;exitX=0.5;exitY=1;exitDx=0;exitDy=0;entryX=0;entryY=0;entryDx=0;entryDy=0;fontFamily=Helvetica;fontSize=12;fontColor=default;endArrow=none;endFill=0;" parent="1" source="6CZiNWrHYL1ybJMgH_nj-45" target="6CZiNWrHYL1ybJMgH_nj-38" edge="1">
          <mxGeometry relative="1" as="geometry" />
        </mxCell>
        <mxCell id="6CZiNWrHYL1ybJMgH_nj-45" value="DNum" style="ellipse;whiteSpace=wrap;html=1;align=center;strokeColor=default;verticalAlign=middle;fontFamily=Helvetica;fontSize=12;fontColor=default;fillColor=default;fontStyle=4" parent="1" vertex="1">
          <mxGeometry x="400" y="-730" width="100" height="40" as="geometry" />
        </mxCell>
        <mxCell id="6CZiNWrHYL1ybJMgH_nj-52" style="rounded=0;orthogonalLoop=1;jettySize=auto;html=1;exitX=1;exitY=0.5;exitDx=0;exitDy=0;entryX=0.5;entryY=1;entryDx=0;entryDy=0;fontFamily=Helvetica;fontSize=12;fontColor=default;endArrow=none;endFill=0;" parent="1" source="6CZiNWrHYL1ybJMgH_nj-49" target="6CZiNWrHYL1ybJMgH_nj-43" edge="1">
          <mxGeometry relative="1" as="geometry" />
        </mxCell>
        <mxCell id="6CZiNWrHYL1ybJMgH_nj-49" value="Project" style="rounded=1;arcSize=10;whiteSpace=wrap;html=1;align=center;strokeColor=default;verticalAlign=middle;fontFamily=Helvetica;fontSize=12;fontColor=default;fillColor=default;" parent="1" vertex="1">
          <mxGeometry x="540" y="-390" width="100" height="30" as="geometry" />
        </mxCell>
        <mxCell id="6CZiNWrHYL1ybJMgH_nj-54" style="edgeStyle=orthogonalEdgeStyle;rounded=0;orthogonalLoop=1;jettySize=auto;html=1;exitX=0;exitY=0.5;exitDx=0;exitDy=0;entryX=0.5;entryY=1;entryDx=0;entryDy=0;fontFamily=Helvetica;fontSize=12;fontColor=default;endArrow=none;endFill=0;" parent="1" source="6CZiNWrHYL1ybJMgH_nj-50" target="6CZiNWrHYL1ybJMgH_nj-49" edge="1">
          <mxGeometry relative="1" as="geometry" />
        </mxCell>
        <mxCell id="6CZiNWrHYL1ybJMgH_nj-50" value="Location" style="ellipse;whiteSpace=wrap;html=1;align=center;strokeColor=default;verticalAlign=middle;fontFamily=Helvetica;fontSize=12;fontColor=default;fillColor=default;" parent="1" vertex="1">
          <mxGeometry x="650" y="-340" width="90" height="40" as="geometry" />
        </mxCell>
        <mxCell id="lmQiB08jAkOfKc20aPpK-6" style="edgeStyle=orthogonalEdgeStyle;rounded=0;orthogonalLoop=1;jettySize=auto;html=1;entryX=0;entryY=0.75;entryDx=0;entryDy=0;endArrow=none;endFill=0;" edge="1" parent="1" source="6CZiNWrHYL1ybJMgH_nj-57" target="6CZiNWrHYL1ybJMgH_nj-38">
          <mxGeometry relative="1" as="geometry" />
        </mxCell>
        <mxCell id="lmQiB08jAkOfKc20aPpK-7" style="edgeStyle=orthogonalEdgeStyle;rounded=0;orthogonalLoop=1;jettySize=auto;html=1;exitX=0;exitY=0.5;exitDx=0;exitDy=0;entryX=0.75;entryY=1;entryDx=0;entryDy=0;endArrow=none;endFill=0;" edge="1" parent="1" source="6CZiNWrHYL1ybJMgH_nj-57" target="6CZiNWrHYL1ybJMgH_nj-18">
          <mxGeometry relative="1" as="geometry">
            <mxPoint x="70" y="-610" as="targetPoint" />
          </mxGeometry>
        </mxCell>
        <mxCell id="6CZiNWrHYL1ybJMgH_nj-57" value="Manage" style="shape=rhombus;perimeter=rhombusPerimeter;whiteSpace=wrap;html=1;align=center;strokeColor=default;verticalAlign=middle;fontFamily=Helvetica;fontSize=12;fontColor=default;fillColor=default;" parent="1" vertex="1">
          <mxGeometry x="220" y="-690" width="120" height="60" as="geometry" />
        </mxCell>
        <mxCell id="lmQiB08jAkOfKc20aPpK-11" style="edgeStyle=orthogonalEdgeStyle;rounded=0;orthogonalLoop=1;jettySize=auto;html=1;exitX=0;exitY=0.5;exitDx=0;exitDy=0;entryX=0.25;entryY=1;entryDx=0;entryDy=0;endArrow=none;endFill=0;" edge="1" parent="1" source="6CZiNWrHYL1ybJMgH_nj-58" target="6CZiNWrHYL1ybJMgH_nj-18">
          <mxGeometry relative="1" as="geometry">
            <mxPoint x="-210" y="-530" as="targetPoint" />
          </mxGeometry>
        </mxCell>
        <mxCell id="lmQiB08jAkOfKc20aPpK-21" style="edgeStyle=orthogonalEdgeStyle;rounded=0;orthogonalLoop=1;jettySize=auto;html=1;entryX=0.25;entryY=1;entryDx=0;entryDy=0;endArrow=none;endFill=0;" edge="1" parent="1" source="6CZiNWrHYL1ybJMgH_nj-58" target="6CZiNWrHYL1ybJMgH_nj-49">
          <mxGeometry relative="1" as="geometry" />
        </mxCell>
        <mxCell id="6CZiNWrHYL1ybJMgH_nj-58" value="Work" style="shape=rhombus;perimeter=rhombusPerimeter;whiteSpace=wrap;html=1;align=center;strokeColor=default;verticalAlign=middle;fontFamily=Helvetica;fontSize=12;fontColor=default;fillColor=default;" parent="1" vertex="1">
          <mxGeometry x="490" y="-210" width="120" height="80" as="geometry" />
        </mxCell>
        <mxCell id="6CZiNWrHYL1ybJMgH_nj-69" style="edgeStyle=orthogonalEdgeStyle;rounded=0;orthogonalLoop=1;jettySize=auto;html=1;entryX=0.5;entryY=0;entryDx=0;entryDy=0;fontFamily=Helvetica;fontSize=12;fontColor=default;endArrow=none;endFill=0;" parent="1" target="6CZiNWrHYL1ybJMgH_nj-67" edge="1">
          <mxGeometry relative="1" as="geometry">
            <mxPoint x="-419.9230769230769" y="-290" as="sourcePoint" />
          </mxGeometry>
        </mxCell>
        <mxCell id="6CZiNWrHYL1ybJMgH_nj-71" style="edgeStyle=orthogonalEdgeStyle;rounded=0;orthogonalLoop=1;jettySize=auto;html=1;exitX=0;exitY=0.5;exitDx=0;exitDy=0;entryX=1;entryY=0.5;entryDx=0;entryDy=0;fontFamily=Helvetica;fontSize=12;fontColor=default;endArrow=none;endFill=0;" parent="1" source="6CZiNWrHYL1ybJMgH_nj-65" edge="1">
          <mxGeometry relative="1" as="geometry">
            <mxPoint x="-370" y="-310" as="targetPoint" />
          </mxGeometry>
        </mxCell>
        <mxCell id="6CZiNWrHYL1ybJMgH_nj-65" value="Name" style="ellipse;whiteSpace=wrap;html=1;align=center;strokeColor=default;verticalAlign=middle;fontFamily=Helvetica;fontSize=12;fontColor=default;fillColor=default;fontStyle=4" parent="1" vertex="1">
          <mxGeometry x="-350" y="-340" width="100" height="40" as="geometry" />
        </mxCell>
        <mxCell id="6CZiNWrHYL1ybJMgH_nj-70" style="edgeStyle=orthogonalEdgeStyle;rounded=0;orthogonalLoop=1;jettySize=auto;html=1;entryX=0.75;entryY=1;entryDx=0;entryDy=0;fontFamily=Helvetica;fontSize=12;fontColor=default;endArrow=none;endFill=0;" parent="1" source="6CZiNWrHYL1ybJMgH_nj-66" edge="1">
          <mxGeometry relative="1" as="geometry">
            <mxPoint x="-395" y="-290" as="targetPoint" />
          </mxGeometry>
        </mxCell>
        <mxCell id="6CZiNWrHYL1ybJMgH_nj-66" value="gender" style="ellipse;whiteSpace=wrap;html=1;align=center;strokeColor=default;verticalAlign=middle;fontFamily=Helvetica;fontSize=12;fontColor=default;fillColor=default;" parent="1" vertex="1">
          <mxGeometry x="-350" y="-250" width="100" height="40" as="geometry" />
        </mxCell>
        <mxCell id="6CZiNWrHYL1ybJMgH_nj-67" value="Birthdate" style="ellipse;whiteSpace=wrap;html=1;align=center;strokeColor=default;verticalAlign=middle;fontFamily=Helvetica;fontSize=12;fontColor=default;fillColor=default;" parent="1" vertex="1">
          <mxGeometry x="-510" y="-170" width="100" height="40" as="geometry" />
        </mxCell>
        <mxCell id="6CZiNWrHYL1ybJMgH_nj-72" value="hiring date" style="ellipse;whiteSpace=wrap;html=1;align=center;strokeColor=default;verticalAlign=middle;fontFamily=Helvetica;fontSize=12;fontColor=default;fillColor=default;" parent="1" vertex="1">
          <mxGeometry x="210" y="-740" width="100" height="40" as="geometry" />
        </mxCell>
        <mxCell id="6CZiNWrHYL1ybJMgH_nj-73" style="rounded=0;orthogonalLoop=1;jettySize=auto;html=1;entryX=0.4;entryY=0.054;entryDx=0;entryDy=0;entryPerimeter=0;fontFamily=Helvetica;fontSize=12;fontColor=default;endArrow=none;endFill=0;" parent="1" source="6CZiNWrHYL1ybJMgH_nj-72" target="6CZiNWrHYL1ybJMgH_nj-57" edge="1">
          <mxGeometry relative="1" as="geometry" />
        </mxCell>
        <mxCell id="lmQiB08jAkOfKc20aPpK-2" style="edgeStyle=orthogonalEdgeStyle;rounded=0;orthogonalLoop=1;jettySize=auto;html=1;entryX=0;entryY=0.75;entryDx=0;entryDy=0;endArrow=none;endFill=0;" edge="1" parent="1" source="lmQiB08jAkOfKc20aPpK-1" target="6CZiNWrHYL1ybJMgH_nj-18">
          <mxGeometry relative="1" as="geometry" />
        </mxCell>
        <mxCell id="lmQiB08jAkOfKc20aPpK-5" style="edgeStyle=orthogonalEdgeStyle;rounded=0;orthogonalLoop=1;jettySize=auto;html=1;entryX=0;entryY=0;entryDx=0;entryDy=0;endArrow=none;endFill=0;" edge="1" parent="1" source="lmQiB08jAkOfKc20aPpK-1" target="6CZiNWrHYL1ybJMgH_nj-18">
          <mxGeometry relative="1" as="geometry">
            <mxPoint x="-350" y="-650" as="targetPoint" />
            <Array as="points">
              <mxPoint x="-400" y="-640" />
              <mxPoint x="-349" y="-640" />
              <mxPoint x="-349" y="-630" />
            </Array>
          </mxGeometry>
        </mxCell>
        <mxCell id="lmQiB08jAkOfKc20aPpK-1" value="suber" style="shape=rhombus;perimeter=rhombusPerimeter;whiteSpace=wrap;html=1;align=center;" vertex="1" parent="1">
          <mxGeometry x="-470" y="-620" width="140" height="60" as="geometry" />
        </mxCell>
        <mxCell id="lmQiB08jAkOfKc20aPpK-16" style="edgeStyle=orthogonalEdgeStyle;rounded=0;orthogonalLoop=1;jettySize=auto;html=1;exitX=0.5;exitY=1;exitDx=0;exitDy=0;entryX=0.5;entryY=0;entryDx=0;entryDy=0;endArrow=none;endFill=0;" edge="1" parent="1" source="lmQiB08jAkOfKc20aPpK-15">
          <mxGeometry relative="1" as="geometry">
            <mxPoint x="-420" y="-330" as="targetPoint" />
          </mxGeometry>
        </mxCell>
        <mxCell id="lmQiB08jAkOfKc20aPpK-15" value="have" style="shape=rhombus;perimeter=rhombusPerimeter;whiteSpace=wrap;html=1;align=center;" vertex="1" parent="1">
          <mxGeometry x="-450" y="-470" width="120" height="50" as="geometry" />
        </mxCell>
        <mxCell id="lmQiB08jAkOfKc20aPpK-17" style="edgeStyle=orthogonalEdgeStyle;rounded=0;orthogonalLoop=1;jettySize=auto;html=1;entryX=0.107;entryY=1.06;entryDx=0;entryDy=0;entryPerimeter=0;endArrow=none;endFill=0;" edge="1" parent="1" source="lmQiB08jAkOfKc20aPpK-15" target="6CZiNWrHYL1ybJMgH_nj-18">
          <mxGeometry relative="1" as="geometry" />
        </mxCell>
        <mxCell id="lmQiB08jAkOfKc20aPpK-19" style="edgeStyle=orthogonalEdgeStyle;rounded=0;orthogonalLoop=1;jettySize=auto;html=1;endArrow=none;endFill=0;" edge="1" parent="1" source="lmQiB08jAkOfKc20aPpK-18" target="6CZiNWrHYL1ybJMgH_nj-38">
          <mxGeometry relative="1" as="geometry" />
        </mxCell>
        <mxCell id="lmQiB08jAkOfKc20aPpK-20" style="edgeStyle=orthogonalEdgeStyle;rounded=0;orthogonalLoop=1;jettySize=auto;html=1;endArrow=none;endFill=0;" edge="1" parent="1">
          <mxGeometry relative="1" as="geometry">
            <mxPoint x="550" y="-420" as="targetPoint" />
            <mxPoint x="550" y="-490" as="sourcePoint" />
            <Array as="points">
              <mxPoint x="550" y="-520" />
              <mxPoint x="550" y="-520" />
            </Array>
          </mxGeometry>
        </mxCell>
        <mxCell id="lmQiB08jAkOfKc20aPpK-18" value="assigned" style="shape=rhombus;perimeter=rhombusPerimeter;whiteSpace=wrap;html=1;align=center;" vertex="1" parent="1">
          <mxGeometry x="490" y="-540" width="120" height="30" as="geometry" />
        </mxCell>
        <mxCell id="lmQiB08jAkOfKc20aPpK-22" value="dependent" style="shape=ext;margin=3;double=1;whiteSpace=wrap;html=1;align=center;" vertex="1" parent="1">
          <mxGeometry x="-460" y="-330" width="100" height="40" as="geometry" />
        </mxCell>
      </root>
    </mxGraphModel>
  </diagram>
</mxfile>
